<svg xmlns="http://www.w3.org/2000/svg" viewBox="0 0 64 64" width="128px" height="128px"><linearGradient id="f6FVo55kmFT3JbbGmLFqXa" x1="32.002" x2="32.002" y1="7" y2="57.645" gradientUnits="userSpaceOnUse" spreadMethod="reflect"><stop offset="0" stop-color="#1a6dff"/><stop offset="1" stop-color="#c822ff"/></linearGradient><path fill="url(#f6FVo55kmFT3JbbGmLFqXa)" d="M46.1,57c-0.512,0-1.026-0.125-1.502-0.376l-12.132-6.411c-0.294-0.154-0.641-0.154-0.931,0 l-12.134,6.411c-1.087,0.574-2.381,0.483-3.378-0.237c-0.996-0.721-1.486-1.923-1.279-3.136l2.303-13.501 c0.065-0.387-0.063-0.781-0.342-1.055l-9.739-9.542c-0.874-0.856-1.182-2.112-0.803-3.276c0.38-1.164,1.368-1.997,2.58-2.174 l13.439-1.963c0.392-0.058,0.73-0.304,0.905-0.66l6.033-12.287C29.665,7.687,30.768,7,32,7c0,0,0,0,0.001,0 C33.232,7,34.335,7.687,34.878,8.793l6.032,12.285c0.176,0.357,0.516,0.604,0.909,0.662l13.443,1.964 c1.21,0.176,2.197,1.008,2.577,2.171c0.379,1.163,0.072,2.418-0.802,3.273l-9.744,9.547c-0.28,0.274-0.407,0.668-0.342,1.054 l2.304,13.502c0.208,1.212-0.282,2.414-1.278,3.136C47.416,56.793,46.76,57,46.1,57z M32,48.097c0.48,0,0.962,0.116,1.4,0.349 l12.133,6.411c0.414,0.218,0.89,0.187,1.271-0.09c0.381-0.275,0.561-0.716,0.481-1.179l-2.304-13.503 c-0.177-1.032,0.165-2.086,0.913-2.818l9.743-9.546c0.332-0.326,0.444-0.784,0.301-1.226c-0.145-0.441-0.505-0.745-0.965-0.813 l-13.442-1.964c-1.045-0.151-1.949-0.809-2.416-1.759L33.083,9.674C32.875,9.252,32.471,9,32,9l0,0 c-0.471,0-0.876,0.253-1.084,0.676l-6.033,12.287c-0.466,0.948-1.367,1.605-2.411,1.757L9.032,25.682 c-0.461,0.067-0.823,0.372-0.968,0.815C7.921,26.94,8.033,27.4,8.366,27.726l9.738,9.541c0.748,0.732,1.09,1.786,0.913,2.819 l-2.303,13.501c-0.079,0.464,0.102,0.904,0.481,1.181c0.382,0.275,0.857,0.307,1.271,0.089l12.134-6.411 C31.038,48.213,31.519,48.097,32,48.097z"/><linearGradient id="f6FVo55kmFT3JbbGmLFqXb" x1="32" x2="32" y1="19.75" y2="44.755" gradientUnits="userSpaceOnUse" spreadMethod="reflect"><stop offset="0" stop-color="#6dc7ff"/><stop offset="1" stop-color="#e6abff"/></linearGradient><path fill="url(#f6FVo55kmFT3JbbGmLFqXb)" d="M32.909,41.885l5.861,2.987c0.831,0.423,1.805-0.254,1.647-1.145l-1.195-6.757 c-0.063-0.357,0.057-0.721,0.321-0.97l5.118-4.837c0.668-0.631,0.296-1.724-0.63-1.854l-7.052-0.994 c-0.37-0.052-0.689-0.276-0.853-0.599l-3.107-6.105c-0.423-0.832-1.612-0.832-2.035,0l-3.108,6.105 c-0.164,0.323-0.484,0.547-0.853,0.599l-7.052,0.993c-0.926,0.13-1.297,1.223-0.63,1.854l5.126,4.844 c0.258,0.244,0.377,0.602,0.315,0.952l-1.197,6.768c-0.158,0.891,0.817,1.568,1.647,1.145l5.861-2.987 C31.662,41.594,32.338,41.594,32.909,41.885z"/></svg>